<svg width="101" height="101" viewBox="0 0 101 101" fill="none" xmlns="http://www.w3.org/2000/svg">
<path d="M93.9688 29.015H94.2188V28.765V27.5868V27.4249L94.071 27.3586L48.9808 7.14568L48.8747 7.09815L48.77 7.14855L6.9228 27.2972L6.78125 27.3653V27.5224V28.765V29.015H7.03125H93.9688ZM100.406 35.2025H0.59375V23.4772L48.7815 0.275657L100.406 23.4177V35.2025ZM7.28125 82.515H93.7188V88.7025H7.28125V82.515ZM0.59375 94.2181H100.406V100.406H0.59375V94.2181ZM8.95312 42.39H15.1406V75.3275H8.95312V42.39ZM85.8594 42.39H92.0469V75.3275H85.8594V42.39ZM65.7969 42.39H71.9844V75.3275H65.7969V42.39ZM29.0156 42.39H35.2031V75.3275H29.0156V42.39ZM47.4062 42.39H53.5938V75.3275H47.4062V42.39Z" fill="#818181" stroke="#E8E8E8" stroke-width="0.5"/>
</svg>
