<svg width="120" height="120" viewBox="0 0 120 120" fill="none" xmlns="http://www.w3.org/2000/svg">
<path d="M41.25 56.25C43.2391 56.25 45.1468 55.4598 46.5533 54.0533C47.9598 52.6468 48.75 50.7391 48.75 48.75C48.75 46.7609 47.9598 44.8532 46.5533 43.4467C45.1468 42.0402 43.2391 41.25 41.25 41.25C39.2609 41.25 37.3532 42.0402 35.9467 43.4467C34.5402 44.8532 33.75 46.7609 33.75 48.75C33.75 50.7391 34.5402 52.6468 35.9467 54.0533C37.3532 55.4598 39.2609 56.25 41.25 56.25ZM86.25 48.75C86.25 50.7391 85.4598 52.6468 84.0533 54.0533C82.6468 55.4598 80.7391 56.25 78.75 56.25C76.7609 56.25 74.8532 55.4598 73.4467 54.0533C72.0402 52.6468 71.25 50.7391 71.25 48.75C71.25 46.7609 72.0402 44.8532 73.4467 43.4467C74.8532 42.0402 76.7609 41.25 78.75 41.25C80.7391 41.25 82.6468 42.0402 84.0533 43.4467C85.4598 44.8532 86.25 46.7609 86.25 48.75ZM86.715 85.425C85.9425 86.0424 84.9575 86.3297 83.9742 86.2243C82.991 86.119 82.0891 85.6295 81.465 84.8625L81.4425 84.84C81.1176 84.4803 80.7747 84.1374 80.415 83.8125C79.2457 82.76 77.9715 81.8301 76.6125 81.0375C73.155 79.0125 67.71 76.875 60.015 76.875C52.32 76.875 46.8675 79.005 43.395 81.045C42.0339 81.838 40.7573 82.7678 39.585 83.82C39.2229 84.1448 38.8774 84.4877 38.55 84.8475L38.5275 84.87C38.2173 85.2526 37.8347 85.5704 37.4016 85.8052C36.9685 86.04 36.4935 86.1872 36.0035 86.2384C35.5136 86.2896 35.0184 86.2437 34.5461 86.1035C34.0739 85.9633 33.6339 85.7315 33.2512 85.4212C32.8686 85.111 32.5508 84.7284 32.316 84.2954C32.0813 83.8623 31.9341 83.3872 31.8829 82.8973C31.8317 82.4073 31.8775 81.9121 32.0177 81.4399C32.1579 80.9676 32.3898 80.5276 32.7 80.145L35.625 82.5L32.7 80.1525V80.145L32.715 80.1375L32.73 80.1225L32.7675 80.0775L32.8725 79.9425L33.24 79.5375C33.54 79.215 33.975 78.7725 34.545 78.2625C35.685 77.2275 37.3575 75.8925 39.6 74.58C44.1 71.9325 50.85 69.375 60.015 69.375C69.1725 69.375 75.915 71.925 80.415 74.58C82.665 75.9 84.33 77.2275 85.4625 78.255C86.0479 78.7893 86.6037 79.3551 87.1275 79.95L87.24 80.0775L87.2775 80.1225L87.2925 80.145C87.2925 80.145 87.3 80.16 84.375 82.5L87.3 80.16C87.9195 80.9362 88.2059 81.9264 88.0962 82.9135C87.9865 83.9005 87.4898 84.8037 86.715 85.425ZM60 0C44.087 0 28.8258 6.32141 17.5736 17.5736C6.32141 28.8258 0 44.087 0 60C0 75.913 6.32141 91.1742 17.5736 102.426C28.8258 113.679 44.087 120 60 120C75.913 120 91.1742 113.679 102.426 102.426C113.679 91.1742 120 75.913 120 60C120 44.087 113.679 28.8258 102.426 17.5736C91.1742 6.32141 75.913 0 60 0ZM7.5 60C7.5 53.1056 8.85795 46.2787 11.4963 39.9091C14.1347 33.5395 18.0018 27.752 22.8769 22.8769C27.752 18.0018 33.5395 14.1347 39.9091 11.4963C46.2787 8.85795 53.1056 7.5 60 7.5C66.8944 7.5 73.7213 8.85795 80.0909 11.4963C86.4605 14.1347 92.248 18.0018 97.1231 22.8769C101.998 27.752 105.865 33.5395 108.504 39.9091C111.142 46.2787 112.5 53.1056 112.5 60C112.5 73.9239 106.969 87.2774 97.1231 97.1231C87.2774 106.969 73.9239 112.5 60 112.5C46.0761 112.5 32.7225 106.969 22.8769 97.1231C13.0312 87.2774 7.5 73.9239 7.5 60Z" fill="#8C8C8C"/>
</svg>
