<svg width="51" height="51" viewBox="0 0 51 51" fill="none" xmlns="http://www.w3.org/2000/svg">
<path d="M50.145 7.0798C50.1189 6.96757 50.0965 6.8541 50.0728 6.74187C50.0219 6.49248 49.9684 6.23435 49.8913 5.98247C48.9574 2.95607 46.8981 1.10057 43.7694 0.472098C43.707 0.457391 43.6456 0.439071 43.5853 0.417232L43.4796 0.382317L43.4436 0.371094H6.62121L6.59137 0.378576L6.25312 0.462123C6.01312 0.52073 5.76317 0.58682 5.51819 0.650415C2.27754 1.55821 0.0118136 4.51603 0.00932652 7.84918C-0.00310884 21.5285 -0.00310884 32.7549 0.00932652 43.1796C0.0155571 45.1577 0.801947 47.053 2.19682 48.4517C3.59169 49.8504 5.48175 50.639 7.45438 50.6453C13.0503 50.6527 18.7706 50.6565 24.7134 50.6565C30.4722 50.6565 36.4375 50.6565 42.6862 50.6453C46.3547 50.6453 49.4511 47.968 50.0505 44.2857C50.061 44.2428 50.0756 44.2011 50.094 44.161C50.1064 44.1286 50.1201 44.0974 50.1313 44.065L50.145 44.0251V7.13467V7.0798ZM32.0975 47.2136H28.2314V28.7459C28.2314 27.3643 27.591 26.7209 26.2181 26.7209H23.9064V24.3017H24.5008C25.1499 24.3017 25.8214 24.3017 26.4904 24.3017C27.3534 24.2918 28.0225 23.7556 28.1966 22.9301C28.2279 22.7544 28.2404 22.5759 28.2339 22.3976V22.3465C28.2339 21.6245 28.2339 20.9037 28.2339 20.1817C28.2339 18.6617 28.2339 17.0905 28.2413 15.5442C28.2371 14.9762 28.2816 14.4088 28.3744 13.8484C28.6654 12.2398 29.6888 11.1736 31.6946 10.3905C33.5338 9.6735 35.5906 9.44655 38.161 9.67475C38.697 9.72213 39.2267 9.80693 39.7876 9.89671L40.3347 9.98275L39.8821 13.0378C39.6943 13.0254 39.509 13.0079 39.3237 12.9917C38.7432 12.9227 38.1576 12.9056 37.5741 12.9406C36.5034 13.0391 35.6217 13.2311 34.8806 13.5291C33.1135 14.2399 32.1547 15.6664 32.1075 17.6541C32.0764 18.9672 32.0851 20.3002 32.0938 21.5896C32.0938 21.9001 32.0938 22.2131 32.0938 22.5211C32.0938 23.5772 32.8101 24.2905 33.8646 24.2967C34.9838 24.303 36.1179 24.2967 37.2221 24.2967H38.886C38.8599 24.4065 38.8325 24.5162 38.8064 24.6247C38.636 25.3255 38.4756 25.9876 38.2928 26.6498C38.2347 26.6812 38.1708 26.7007 38.1051 26.7071C37.1749 26.7159 36.2273 26.7159 35.3108 26.7159H33.9877C32.7877 26.7159 32.0988 27.4129 32.0988 28.62C32.0988 33.0492 32.0988 37.4789 32.0988 41.909L32.0975 47.2136ZM35.5235 30.145C35.6031 30.145 35.6789 30.1376 35.7535 30.1376H37.1948C37.9583 30.1376 38.7227 30.1376 39.4879 30.1376C40.4566 30.1376 41.0672 29.6575 41.3022 28.7235C41.8593 26.5089 42.3045 24.712 42.7036 23.0697C42.7812 22.811 42.7958 22.5374 42.7463 22.2719C42.6967 22.0063 42.5844 21.7566 42.4188 21.5435C42.2532 21.3304 42.0391 21.1602 41.7944 21.0472C41.5497 20.9341 41.2816 20.8815 41.0124 20.8938C39.795 20.8863 38.5577 20.8875 37.3602 20.8938H35.5173C35.5173 20.6119 35.5173 20.3314 35.5173 20.0533C35.5173 19.1804 35.5061 18.3587 35.5322 17.5232C35.5459 17.0805 35.8219 16.775 36.3778 16.5792C37.6213 16.149 38.8649 16.346 39.8236 16.5655C39.9418 16.5917 40.0587 16.6216 40.1768 16.6516C40.4559 16.7264 40.7385 16.7871 41.0236 16.8336C42.0185 16.977 42.8218 16.386 42.9747 15.3959C43.3354 13.0715 43.6462 10.9965 43.9248 9.05376C44.0628 8.09858 43.5779 7.3292 42.69 7.09477C38.2294 5.91638 34.5274 5.89019 31.0405 7.00997C28.4826 7.823 26.7366 9.2009 25.6971 11.2197C25.1151 12.342 24.8514 13.6177 24.8403 15.3348C24.8328 16.669 24.8403 17.9771 24.8403 19.3625C24.8403 19.8671 24.8403 20.3763 24.8403 20.89H23.3642C22.9911 20.89 22.6019 20.89 22.2201 20.89C21.193 20.9062 20.4717 21.622 20.4655 22.6358C20.4555 24.4239 20.4555 26.3006 20.4655 28.3718C20.4655 29.4181 21.1855 30.1276 22.2462 30.1376C22.8842 30.1438 23.5097 30.1376 24.1712 30.1376H24.793V47.236H7.79386C5.13145 47.236 3.4104 45.5002 3.40916 42.8168V8.20457C3.40916 5.52109 5.13145 3.7878 7.79511 3.7878H42.2634C44.9408 3.7878 46.7402 5.58219 46.7402 8.25195V42.7681C46.7402 45.5239 45.0415 47.236 42.307 47.2373H35.5235V30.145Z" fill="#818181"/>
</svg>
