<svg width="44" height="44" viewBox="0 0 44 44" fill="none" xmlns="http://www.w3.org/2000/svg">
<path d="M2.5 6.83333C2.5 4.4401 4.4401 2.5 6.83333 2.5H13.9384C14.871 2.5 15.6989 3.09677 15.9938 3.98151L19.2391 13.7173C19.5801 14.7402 19.117 15.8582 18.1526 16.3404L13.2618 18.7857C15.65 24.0826 19.9174 28.35 25.2143 30.7382L27.6596 25.8474C28.1418 24.883 29.2598 24.4199 30.2827 24.7609L40.0185 28.0062C40.9032 28.3011 41.5 29.129 41.5 30.0616V37.1667C41.5 39.5599 39.5599 41.5 37.1667 41.5H35C17.0507 41.5 2.5 26.9493 2.5 9V6.83333Z" stroke="#818181" stroke-width="4" stroke-linecap="round" stroke-linejoin="round"/>
</svg>
