<svg width="113" height="114" viewBox="0 0 113 114" fill="none" xmlns="http://www.w3.org/2000/svg">
<path d="M43.9995 45H15.4159C6.49529 45 0.69334 54.3878 4.68275 62.3666L25.6827 104.367C27.7155 108.432 31.8706 111 36.4159 111H60.5222C61.5033 111 62.4808 110.88 63.4326 110.642L85.9995 105M43.9995 45V15C43.9995 8.37258 49.372 3 55.9995 3H56.5723C59.5696 3 61.9995 5.42982 61.9995 8.42715C61.9995 12.713 63.2681 16.9029 65.6454 20.4689L85.9995 51V105M43.9995 45H55.9995M85.9995 105H97.9995C104.627 105 109.999 99.6274 109.999 93V57C109.999 50.3726 104.627 45 97.9995 45H82.9995" stroke="#818181" stroke-width="5" stroke-linecap="round" stroke-linejoin="round"/>
</svg>
