<svg width="170" height="170" viewBox="0 0 170 170" fill="none" xmlns="http://www.w3.org/2000/svg">
<path d="M112 40C121.941 40 130 48.0589 130 58M166 58C166 87.8234 141.823 112 112 112C106.544 112 101.278 111.191 96.3136 109.686L76 130H58V148H40V166H13C8.02944 166 4 161.971 4 157V133.728C4 131.341 4.94821 129.052 6.63603 127.364L60.3136 73.6864C58.809 68.7222 58 63.4556 58 58C58 28.1766 82.1766 4 112 4C141.823 4 166 28.1766 166 58Z" stroke="#818181" stroke-width="8" stroke-linecap="round" stroke-linejoin="round"/>
</svg>
