<svg width="48" height="40" viewBox="0 0 48 40" fill="none" xmlns="http://www.w3.org/2000/svg">
<path d="M34.5 37.3327H45.3333V32.9994C45.3333 29.4095 42.4232 26.4993 38.8333 26.4993C36.7628 26.4993 34.9185 27.4674 33.7281 28.9756M34.5 37.3327H12.8333M34.5 37.3327V32.9994C34.5 31.5775 34.2261 30.2196 33.7281 28.9756M12.8333 37.3327H2V32.9994C2 29.4095 4.91015 26.4993 8.5 26.4993C10.5705 26.4993 12.4149 27.4674 13.6052 28.9756M12.8333 37.3327V32.9994C12.8333 31.5775 13.1073 30.2196 13.6052 28.9756M13.6052 28.9756C15.2026 24.9849 19.1054 22.166 23.6667 22.166C28.2279 22.166 32.1307 24.9849 33.7281 28.9756M30.1667 9.16602C30.1667 12.7559 27.2565 15.666 23.6667 15.666C20.0768 15.666 17.1667 12.7559 17.1667 9.16602C17.1667 5.57616 20.0768 2.66602 23.6667 2.66602C27.2565 2.66602 30.1667 5.57616 30.1667 9.16602ZM43.1667 15.666C43.1667 18.0593 41.2266 19.9993 38.8333 19.9993C36.4401 19.9993 34.5 18.0593 34.5 15.666C34.5 13.2728 36.4401 11.3327 38.8333 11.3327C41.2266 11.3327 43.1667 13.2728 43.1667 15.666ZM12.8333 15.666C12.8333 18.0593 10.8932 19.9993 8.5 19.9993C6.10677 19.9993 4.16667 18.0593 4.16667 15.666C4.16667 13.2728 6.10677 11.3327 8.5 11.3327C10.8932 11.3327 12.8333 13.2728 12.8333 15.666Z" stroke="#818181" stroke-width="4" stroke-linecap="round" stroke-linejoin="round"/>
</svg>
