<svg width="176" height="176" viewBox="0 0 176 176" fill="none" xmlns="http://www.w3.org/2000/svg">
<path d="M109.233 62.6215C110.681 64.2901 113.207 64.469 114.876 63.0212C116.544 61.5734 116.723 59.0471 115.275 57.3785L109.233 62.6215ZM66.7673 113.378C65.3195 111.71 62.7931 111.531 61.1246 112.979C59.456 114.427 59.2771 116.953 60.7249 118.622L66.7673 113.378ZM92 41.3333C92 39.1242 90.2091 37.3333 88 37.3333C85.7909 37.3333 84 39.1242 84 41.3333H92ZM84 134.667C84 136.876 85.7908 138.667 87.9999 138.667C90.2091 138.667 92 136.876 92 134.667L84 134.667ZM168 88C168 132.183 132.183 168 88 168V176C136.601 176 176 136.601 176 88H168ZM88 168C43.8172 168 8 132.183 8 88H0C0 136.601 39.3989 176 88 176V168ZM8 88C8 43.8172 43.8172 8 88 8V0C39.3989 0 0 39.3989 0 88H8ZM88 8C132.183 8 168 43.8172 168 88H176C176 39.3989 136.601 0 88 0V8ZM88 84C80.9476 84 74.7437 82.0871 70.4198 79.2045C66.0679 76.3032 64 72.7345 64 69.3333H56C56 76.2415 60.2001 82.0061 65.9822 85.8609C71.7923 89.7343 79.5885 92 88 92V84ZM64 69.3333C64 65.9322 66.0679 62.3635 70.4198 59.4622C74.7437 56.5796 80.9476 54.6667 88 54.6667V46.6667C79.5885 46.6667 71.7923 48.9324 65.9822 52.8058C60.2001 56.6606 56 62.4251 56 69.3333H64ZM88 54.6667C97.5374 54.6667 105.345 58.141 109.233 62.6215L115.275 57.3785C109.48 50.7001 99.1905 46.6667 88 46.6667V54.6667ZM88 92C95.0524 92 101.256 93.9129 105.58 96.7955C109.932 99.6968 112 103.266 112 106.667H120C120 99.7585 115.8 93.9939 110.018 90.1391C104.208 86.2657 96.4115 84 88 84V92ZM84 41.3333V50.6667H92V41.3333H84ZM84.0002 125.333L84 134.667L92 134.667L92.0002 125.333L84.0002 125.333ZM88.0002 121.333C78.4629 121.333 70.655 117.859 66.7673 113.378L60.7249 118.622C66.5197 125.3 76.8098 129.333 88.0002 129.333L88.0002 121.333ZM112 106.667C112 110.068 109.932 113.637 105.58 116.538C101.256 119.42 95.0526 121.333 88.0002 121.333V129.333C96.4117 129.333 104.208 127.068 110.018 123.194C115.8 119.339 120 113.575 120 106.667H112ZM84 50.6667L84.0002 125.333L92.0002 125.333L92 50.6667L84 50.6667Z" fill="#818181"/>
</svg>
