<svg width="46" height="46" viewBox="0 0 46 46" fill="none" xmlns="http://www.w3.org/2000/svg">
<path d="M3.83398 19.7143H34.5007M10.6488 27.9286H12.3525M19.1673 27.9286H20.871M8.9451 34.5H29.3895C32.2123 34.5 34.5007 32.2934 34.5007 29.5714V16.4286C34.5007 13.7066 32.2123 11.5 29.3895 11.5H8.9451C6.12231 11.5 3.83398 13.7066 3.83398 16.4286V29.5714C3.83398 32.2934 6.12231 34.5 8.9451 34.5Z" stroke="#222222" stroke-width="2" stroke-linecap="round" stroke-linejoin="round"/>
<path d="M11.5 34.9114C11.5 37.8602 13.7883 40.2506 16.6111 40.2506H37.0556C39.8783 40.2506 42.1667 37.8602 42.1667 34.9114V20.6733C42.1667 17.7245 39.8783 15.334 37.0556 15.334M42.1667 24.2328H35.3518" stroke="#222222" stroke-width="2" stroke-linecap="round" stroke-linejoin="round"/>
</svg>
