<svg width="34" height="30" viewBox="0 0 34 30" fill="none" xmlns="http://www.w3.org/2000/svg">
<path d="M32.521 12.4941L32.5155 12.4902L17.3985 1.69875L16.8175 1.28399L16.2365 1.69875L1.17158 12.453C1.14903 12.4616 1.12434 12.4636 1.10042 12.4586C1.06946 12.4521 1.04206 12.4342 1.02364 12.4085C1.00522 12.3827 0.997114 12.351 1.00092 12.3196C1.00384 12.2956 1.01356 12.2731 1.02874 12.2546L16.7441 1.0293C16.7443 1.02922 16.7444 1.02914 16.7445 1.02905C16.7658 1.01396 16.7913 1.00586 16.8175 1.00586C16.8436 1.00586 16.8691 1.01396 16.8905 1.02905C16.8906 1.02914 16.8907 1.02922 16.8908 1.0293L32.6548 12.2892C32.6552 12.2896 32.6556 12.2899 32.6561 12.2902C32.677 12.3058 32.6926 12.3274 32.7008 12.3522C32.7091 12.3776 32.7092 12.4049 32.701 12.4303C32.6929 12.4556 32.677 12.4778 32.6555 12.4936C32.6357 12.5081 32.6122 12.5165 32.5879 12.5179C32.5638 12.5165 32.5406 12.5083 32.521 12.4941Z" fill="#FDDA24" stroke="#FDDA24" stroke-width="2"/>
<path d="M5.55271 1.25291H4.55271V2.25291V5.63227C4.55271 5.6658 4.53939 5.69797 4.51567 5.72168C4.49196 5.7454 4.45979 5.75872 4.42626 5.75872C4.39272 5.75872 4.36056 5.7454 4.33684 5.72168L3.63558 6.42295L4.33684 5.72168C4.31313 5.69797 4.2998 5.6658 4.2998 5.63227V1.12645C4.2998 1.09292 4.31313 1.06075 4.33684 1.03704C4.36056 1.01332 4.39272 1 4.42626 1H8.93207C8.96561 1 8.99777 1.01332 9.02149 1.03704C9.0452 1.06075 9.05853 1.09292 9.05853 1.12645C9.05853 1.15999 9.0452 1.19215 9.02149 1.21587C8.99777 1.23958 8.96561 1.25291 8.93207 1.25291H5.55271Z" fill="#FDDA24" stroke="#FDDA24" stroke-width="2"/>
<path d="M21.1966 20.2763V19.2763H20.1966H13.4379H12.4379V20.2763V28.1615C12.4379 28.195 12.4246 28.2272 12.4008 28.2509C12.3771 28.2746 12.345 28.2879 12.3114 28.2879H6.67917C6.04812 28.2879 5.44292 28.0372 4.9967 27.591C4.55049 27.1448 4.2998 26.5396 4.2998 25.9086V14.644C4.2998 14.6105 4.31313 14.5783 4.33684 14.5546C4.36056 14.5309 4.39272 14.5176 4.42626 14.5176C4.4598 14.5176 4.49196 14.5309 4.51567 14.5546C4.53939 14.5783 4.55271 14.6105 4.55271 14.644V25.9086C4.55271 26.4725 4.77675 27.0134 5.17554 27.4122C5.57432 27.811 6.1152 28.035 6.67917 28.035H11.185H12.185V27.035V19.1498C12.185 19.1163 12.1983 19.0841 12.222 19.0604C12.2457 19.0367 12.2779 19.0234 12.3114 19.0234H21.3231C21.3566 19.0234 21.3888 19.0367 21.4125 19.0604C21.4362 19.0841 21.4495 19.1163 21.4495 19.1498V27.035V28.035H22.4495H26.9553C27.5193 28.035 28.0602 27.811 28.459 27.4122C28.8578 27.0134 29.0818 26.4725 29.0818 25.9086V14.644C29.0818 14.6105 29.0951 14.5783 29.1188 14.5546C29.1425 14.5309 29.1747 14.5176 29.2082 14.5176C29.2418 14.5176 29.2739 14.5309 29.2977 14.5546C29.3214 14.5783 29.3347 14.6105 29.3347 14.644V25.9086C29.3347 26.5396 29.084 27.1448 28.6378 27.591C28.1916 28.0372 27.5864 28.2879 26.9553 28.2879H21.3231C21.2895 28.2879 21.2574 28.2746 21.2336 28.2509C21.2099 28.2272 21.1966 28.195 21.1966 28.1615V20.2763Z" fill="#FDDA24" stroke="#FDDA24" stroke-width="2"/>
</svg>
