<svg width="47" height="26" viewBox="0 0 47 26" fill="none" xmlns="http://www.w3.org/2000/svg">
<path d="M46.2139 17.4993V19.666L28.8805 25.0827L13.7139 20.8793V23.9993H0.713867V0.166016H17.9822L31.3289 5.14935C32.5182 5.59797 33.5428 6.39791 34.2665 7.44286C34.9902 8.4878 35.3788 9.72826 35.3805 10.9993H39.7139C43.3105 10.9993 46.2139 13.9027 46.2139 17.4993ZM9.38053 19.666V4.49935H5.0472V19.666H9.38053ZM41.6639 16.5677C41.3172 15.8527 40.5589 15.3327 39.7139 15.3327H28.1222C26.9522 15.3327 25.8039 15.1593 24.6989 14.791L19.5422 13.0793L20.9072 8.96268L26.0639 10.6743C26.7139 10.891 31.0472 10.9993 31.0472 10.9993C31.0472 10.1977 30.5489 9.48268 29.8122 9.20102L17.2022 4.49935H13.7139V16.416L28.8155 20.5543L41.6639 16.5677Z" fill="#818181"/>
</svg>
