<svg width="106" height="106" viewBox="0 0 106 106" fill="none" xmlns="http://www.w3.org/2000/svg">
<path d="M56.3125 72.875V46.375H43.0625V53H49.6875V72.875H39.75V79.5H66.25V72.875H56.3125ZM53 26.5C52.0173 26.5 51.0566 26.7914 50.2395 27.3374C49.4224 27.8834 48.7855 28.6594 48.4095 29.5673C48.0334 30.4752 47.935 31.4743 48.1267 32.4381C48.3184 33.4019 48.7917 34.2873 49.4866 34.9822C50.1815 35.6771 51.0668 36.1503 52.0306 36.342C52.9945 36.5337 53.9935 36.4353 54.9015 36.0593C55.8094 35.6832 56.5854 35.0463 57.1314 34.2292C57.6773 33.4121 57.9688 32.4515 57.9688 31.4688C57.9688 30.151 57.4453 28.8871 56.5134 27.9553C55.5816 27.0235 54.3178 26.5 53 26.5Z" fill="#818181"/>
<path d="M53 98.875C43.9268 98.875 35.0573 96.1845 27.5132 91.1437C19.9691 86.1029 14.0892 78.9382 10.617 70.5556C7.14488 62.1731 6.2364 52.9491 8.0065 44.0503C9.77659 35.1514 14.1458 26.9772 20.5615 20.5615C26.9772 14.1458 35.1514 9.77659 44.0503 8.0065C52.9491 6.2364 62.1731 7.14488 70.5556 10.617C78.9382 14.0892 86.1029 19.9691 91.1437 27.5132C96.1845 35.0573 98.875 43.9268 98.875 53C98.875 65.1668 94.0418 76.8353 85.4385 85.4385C76.8353 94.0418 65.1668 98.875 53 98.875ZM53 12.75C45.0393 12.75 37.2574 15.1106 30.6383 19.5334C24.0192 23.9561 18.8603 30.2423 15.8139 37.597C12.7674 44.9517 11.9704 53.0447 13.5234 60.8524C15.0765 68.6601 18.9099 75.832 24.539 81.4611C30.168 87.0901 37.3399 90.9236 45.1476 92.4766C52.9554 94.0297 61.0483 93.2326 68.403 90.1862C75.7578 87.1397 82.0439 81.9808 86.4667 75.3617C90.8894 68.7426 93.25 60.9607 93.25 53C93.25 42.3251 89.0094 32.0873 81.4611 24.539C73.9127 16.9906 63.675 12.75 53 12.75Z" fill="#818181" stroke="#E8E8E8"/>
</svg>
