<svg width="51" height="51" viewBox="0 0 51 51" fill="none" xmlns="http://www.w3.org/2000/svg">
<path d="M50.8638 13.8376V37.1336C50.8364 37.2932 50.7979 37.4528 50.7817 37.6137C50.589 39.62 50.0443 41.5341 49.0333 43.2687C46.1284 48.2566 41.7736 50.8927 36.0085 50.955C28.9602 51.0298 21.9106 50.9874 14.8622 50.9662C11.1851 50.955 7.90834 49.7704 5.1365 47.3288C1.69439 44.2962 0.0380016 40.4368 0.0292969 35.8567C0.0292969 28.9883 0.0292969 22.1188 0.0292969 15.2492C0.0292969 12.7191 0.491894 10.3012 1.67823 8.05544C3.66788 4.29332 6.68968 1.7707 10.7784 0.592312C11.7733 0.305508 12.8141 0.193281 13.8338 0H37.068C37.144 0.0296522 37.2228 0.051787 37.3031 0.0660893C39.7397 0.243465 42.0897 1.04742 44.1263 2.40042C47.1979 4.43174 49.287 7.21623 50.2806 10.7801C50.5529 11.7727 50.6723 12.8139 50.8638 13.8376ZM25.4957 3.98657C22.0212 3.98657 18.5468 3.97036 15.0736 3.99779C14.2144 3.98679 13.3566 4.07042 12.5156 4.24718C7.34626 5.45799 4.00364 9.71142 3.99991 15.036C3.9941 22.0024 3.99701 28.9696 4.00861 35.9377C3.99709 36.7832 4.08052 37.6273 4.25732 38.4541C5.46479 43.6365 9.7065 46.9884 15.0164 46.9921C21.9636 46.9979 28.9117 46.995 35.8605 46.9834C36.6874 46.9924 37.5129 46.9126 38.3227 46.7452C43.4076 45.623 46.8646 41.3209 46.8808 36.0899C46.9019 29.0233 46.8882 21.9567 46.8808 14.8913C46.8808 13.3139 46.6022 11.7826 45.9071 10.3611C43.8739 6.175 40.4989 4.04892 35.8668 3.98657C32.4122 3.94168 28.9539 3.97909 25.4969 3.97909L25.4957 3.98657Z" fill="#818181"/>
<path d="M11.7419 25.4127C11.8227 17.8149 18.0367 11.6524 25.5253 11.7472C33.1108 11.8419 39.2477 18.0768 39.1407 25.5798C39.0325 33.1739 32.8659 39.289 25.3835 39.2217C17.8166 39.1506 11.666 32.927 11.7419 25.4127ZM35.1701 25.51C35.1913 20.148 30.8177 15.7487 25.4705 15.7288C20.1233 15.7088 15.7361 20.0932 15.715 25.4551C15.6939 30.8171 20.0674 35.2152 25.4146 35.2376C30.7618 35.2601 35.154 30.8795 35.1739 25.51H35.1701Z" fill="#818181"/>
<path d="M37.3587 11.5037C37.3671 11.1112 37.4912 10.73 37.7154 10.4081C37.9395 10.0863 38.2537 9.83823 38.6183 9.69521C38.9829 9.55218 39.3815 9.52062 39.7639 9.60449C40.1464 9.68836 40.4955 9.88391 40.7673 10.1665C41.039 10.4491 41.2212 10.806 41.291 11.1923C41.3607 11.5786 41.3148 11.9769 41.159 12.3371C41.0033 12.6972 40.7446 13.0031 40.4158 13.216C40.0869 13.429 39.7025 13.5395 39.3111 13.5337C38.7838 13.5239 38.282 13.3045 37.9159 12.9239C37.5498 12.5432 37.3494 12.0324 37.3587 11.5037Z" fill="#818181"/>
</svg>
