<svg width="100" height="100" viewBox="0 0 100 100" fill="none" xmlns="http://www.w3.org/2000/svg">
<path d="M83.333 56.6673V50.0007C83.333 48.2325 82.6306 46.5369 81.3804 45.2866C80.1301 44.0364 78.4345 43.334 76.6663 43.334H9.99967C8.23156 43.334 6.53587 44.0364 5.28563 45.2866C4.03539 46.5369 3.33301 48.2325 3.33301 50.0007V90.0007C3.33301 91.7688 4.03539 93.4645 5.28563 94.7147C6.53587 95.9649 8.23156 96.6673 9.99967 96.6673H76.6663C78.4345 96.6673 80.1301 95.9649 81.3804 94.7147C82.6306 93.4645 83.333 91.7688 83.333 90.0007V83.334M83.333 56.6673H56.6663C53.1301 56.6673 49.7387 58.0721 47.2383 60.5726C44.7378 63.0731 43.333 66.4644 43.333 70.0007C43.333 73.5369 44.7378 76.9283 47.2383 79.4287C49.7387 81.9292 53.1301 83.334 56.6663 83.334H83.333M83.333 56.6673C86.8692 56.6673 90.2606 58.0721 92.7611 60.5726C95.2616 63.0731 96.6663 66.4644 96.6663 70.0007C96.6663 73.5369 95.2616 76.9283 92.7611 79.4287C90.2606 81.9292 86.8692 83.334 83.333 83.334M23.333 43.334V23.334C23.333 18.0297 25.4401 12.9426 29.1909 9.19185C32.9416 5.44112 38.0287 3.33398 43.333 3.33398C48.6373 3.33398 53.7244 5.44112 57.4751 9.19185C61.2259 12.9426 63.333 18.0297 63.333 23.334V43.334M79.9997 70.0007H86.6663M66.6663 70.0007H73.333M53.333 70.0007H59.9997" stroke="#818181" stroke-width="5"/>
</svg>
