<svg width="27" height="26" viewBox="0 0 27 26" fill="none" xmlns="http://www.w3.org/2000/svg">
<path d="M23.4303 19.4454H21.3708C21.2301 19.4454 21.0983 19.5069 21.0104 19.6153C20.8053 19.8643 20.5856 20.1045 20.3542 20.3331C19.4076 21.2806 18.2863 22.0357 17.0524 22.5567C15.7741 23.0966 14.4001 23.3736 13.0124 23.3711C11.609 23.3711 10.2497 23.0957 8.97233 22.5567C7.73843 22.0357 6.61717 21.2806 5.67057 20.3331C4.72228 19.3887 3.96613 18.2694 3.44401 17.0372C2.90202 15.7598 2.62956 14.4034 2.62956 13C2.62956 11.5967 2.90495 10.2403 3.44401 8.96294C3.9655 7.72954 4.7155 6.61919 5.67057 5.66704C6.62565 4.71489 7.736 3.96489 8.97233 3.4434C10.2497 2.90434 11.609 2.62895 13.0124 2.62895C14.4157 2.62895 15.7751 2.90141 17.0524 3.4434C18.2887 3.96489 19.3991 4.71489 20.3542 5.66704C20.5856 5.89848 20.8024 6.13872 21.0104 6.38481C21.0983 6.49321 21.2331 6.55473 21.3708 6.55473H23.4303C23.6149 6.55473 23.7292 6.34965 23.6266 6.19438C21.3796 2.70219 17.4479 0.390669 12.9801 0.402388C5.96061 0.419966 0.332683 6.11821 0.402995 13.129C0.473308 20.0284 6.09245 25.5977 13.0124 25.5977C17.4684 25.5977 21.3825 23.2891 23.6266 19.8057C23.7262 19.6504 23.6149 19.4454 23.4303 19.4454ZM26.0348 12.8155L21.8776 9.53423C21.7223 9.41118 21.4967 9.52251 21.4967 9.71879V11.9454H12.2975C12.1686 11.9454 12.0632 12.0508 12.0632 12.1797V13.8204C12.0632 13.9493 12.1686 14.0547 12.2975 14.0547H21.4967V16.2813C21.4967 16.4776 21.7253 16.5889 21.8776 16.4659L26.0348 13.1846C26.0628 13.1627 26.0855 13.1347 26.1011 13.1027C26.1167 13.0707 26.1248 13.0356 26.1248 13C26.1248 12.9645 26.1167 12.9294 26.1011 12.8974C26.0855 12.8654 26.0628 12.8374 26.0348 12.8155Z" fill="white"/>
</svg>
